PathFileType	4	(X/Y/Z)	C:/Users/opensim2020/Desktop/walking_exp_matlab/subject01_walking07_straight_03.trc	
DataRate	CameraRate	NumFrames	NumMarkers	Units	OrigDataRate	OrigDataStartFrame	OrigNumFrames	
100.00	100.00	4	43	mm	100.00	2228	220	
Frame#	Time	LFHD			RFHD			LBHD			RBHD			C7			T10			CLAV			STRN			RBAK			LSHO			LUPA			LELB			LFRM			LWRA			LWRB			LFIN			RSHO			RUPA			RELB			RFRM			RWRA			RWRB			RFIN			LASI			RASI			LPSI			RPSI			LTHI			LKNE			LTIB			LANK			LHEE			LTOE			RTHI			RKNE			RTIB			RANK			RHEE			RTOE			*39			*40			*41			*42			
		X1	Y1	Z1	X2	Y2	Z2	X3	Y3	Z3	X4	Y4	Z4	X5	Y5	Z5	X6	Y6	Z6	X7	Y7	Z7	X8	Y8	Z8	X9	Y9	Z9	X10	Y10	Z10	X11	Y11	Z11	X12	Y12	Z12	X13	Y13	Z13	X14	Y14	Z14	X15	Y15	Z15	X16	Y16	Z16	X17	Y17	Z17	X18	Y18	Z18	X19	Y19	Z19	X20	Y20	Z20	X21	Y21	Z21	X22	Y22	Z22	X23	Y23	Z23	X24	Y24	Z24	X25	Y25	Z25	X26	Y26	Z26	X27	Y27	Z27	X28	Y28	Z28	X29	Y29	Z29	X30	Y30	Z30	X31	Y31	Z31	X32	Y32	Z32	X33	Y33	Z33	X34	Y34	Z34	X35	Y35	Z35	X36	Y36	Z36	X37	Y37	Z37	X38	Y38	Z38	X39	Y39	Z39	X40	Y40	Z40	X41	Y41	Z41	X42	Y42	Z42	X43	Y43	Z43	

193	1.920	1385.47278	804.82446	1670.46033	1488.74475	852.93738	1672.43250	1429.34924	694.67023	1628.98669	1539.63135	742.74097	1630.37927	1452.29150	662.19806	1430.40735	1449.31592	631.89740	1136.41516	1441.18079	806.80469	1365.46448	1428.97632	853.13275	1212.61304	1524.71985	614.96484	1232.48962	1285.72742	738.77380	1398.40881	1192.81165	718.52112	1218.39600	1180.92139	717.59430	1065.84058	1147.67163	779.00507	970.16510	1156.85132	885.24847	878.93909	1132.99548	832.62952	861.30341	1117.10156	897.95288	809.63525	1597.87622	752.83893	1387.56799	1692.21240	694.10577	1184.16565	1692.06323	693.38202	1060.80908	1722.69287	711.89063	942.76343	1705.62549	782.09210	819.07935	1744.39490	738.58429	824.88263	1741.21936	766.51105	742.69952	1328.30786	801.17126	930.55194	1543.20789	819.49677	939.15460	1396.52185	619.63281	938.95013	1541.49719	632.80035	946.98486	1265.96057	776.01428	594.81696	1270.64636	765.96387	462.16705	1264.83813	616.55060	352.61032	1319.26868	451.81073	212.64330	1378.12439	411.12469	226.25285	1312.19897	495.04291	70.97339	1602.04272	816.95593	607.93640	1572.07141	856.07635	455.37250	1579.83899	817.06714	281.70416	1529.21875	805.88239	78.17383	1480.59351	754.90948	39.43251	1521.99207	946.72968	41.60268	1471.80469	835.82367	1706.88245	-3101.99414	1973.11560	1023.93793	-3140.67456	2012.51794	1022.04669			 
194	1.930	1386.46533	813.91974	1671.39148	1489.48511	862.70502	1673.34802	1430.70593	704.13812	1629.79956	1540.67468	752.78442	1631.08362	1453.41626	671.91632	1431.60779	1450.60205	640.83087	1137.70996	1441.49255	816.29620	1366.19360	1429.39978	862.28284	1213.27820	1526.27832	624.51477	1233.87891	1286.40613	747.53357	1399.45776	1194.07764	725.62268	1219.09814	1182.99316	723.36859	1066.60474	1150.20886	782.23718	969.46637	1159.73132	886.13623	875.46606	1136.09241	833.07501	859.19391	1120.61877	897.14832	805.56494	1598.44434	763.33453	1388.60144	1693.88708	706.50079	1185.08984	1693.82019	706.28314	1061.57227	1724.35815	726.43781	943.76312	1706.80078	798.42932	821.16498	1745.43567	754.91382	825.98737	1742.55164	784.40759	744.48639	1329.20020	810.05060	931.56781	1544.48889	827.89795	939.83759	1397.02112	627.60883	939.84192	1541.78711	641.03723	947.72791	1266.19434	790.73804	596.64160	1271.06470	783.86414	464.01352	1266.27527	635.00940	354.25360	1321.53052	469.97452	215.02747	1381.38464	430.08679	227.26588	1310.02466	514.34937	73.37709	1602.47839	822.09088	608.13495	1572.41467	859.31836	454.92236	1580.21863	819.22809	281.86905	1529.11487	805.93280	78.22863	1480.60034	754.92676	39.53151	1521.85400	946.84308	41.48340	1472.48499	845.35632	1707.86914	-3102.02759	1973.03979	1023.84253	-3140.56958	2012.62183	1022.08453			 
195	1.940	1387.06360	822.99988	1672.44141	1489.85999	872.39844	1674.32214	1431.86316	713.52863	1630.52332	1541.61877	762.82983	1631.71228	1454.42407	681.60052	1432.76038	1451.83630	649.78394	1138.95227	1441.72473	825.71997	1366.85815	1429.73169	871.40607	1213.82031	1527.71887	633.97144	1235.27625	1287.08142	756.22168	1400.46167	1195.51746	732.41901	1219.77954	1185.05078	728.88849	1067.31836	1152.72546	785.41901	968.85583	1162.63782	886.94739	872.23816	1139.04846	833.47980	857.17761	1124.20032	896.06787	801.66815	1598.65552	773.61572	1389.31738	1695.45483	718.92432	1185.95874	1695.55127	719.35992	1062.41370	1725.97815	741.25262	944.79309	1707.90271	814.94891	823.36157	1747.08594	771.82318	827.70605	1743.90564	802.53772	746.64038	1330.17090	818.80658	932.57275	1545.75220	836.27222	940.46851	1397.37976	636.33319	940.73322	1542.21948	649.30798	948.58417	1266.42419	805.70795	598.64862	1271.35474	801.89160	466.24237	1267.79297	653.74316	355.84769	1323.88513	489.36398	216.47252	1384.40991	449.35889	227.14859	1309.15491	534.93042	75.90160	1602.70349	827.18469	608.15222	1572.59814	862.58124	454.42160	1580.29150	821.21735	281.65195	1529.05981	806.04901	78.23841	1480.53552	754.90649	39.66156	1521.68945	947.02399	41.33432	1472.97705	854.81512	1708.80676	-3102.11011	1972.94434	1023.89594	-3140.67822	2012.56628	1022.02136			 
196	1.950	1387.59241	832.03857	1673.30103	1490.05530	882.01288	1675.20886	1432.99963	722.94232	1631.16553	1542.40869	772.89258	1632.32300	1455.32983	691.09631	1433.76074	1452.97827	658.26587	1140.30811	1441.98364	835.11731	1367.51013	1430.05615	880.40381	1214.29028	1528.95068	643.33582	1236.62891	1287.66406	765.01862	1401.31396	1196.80225	739.38458	1220.39612	1187.22375	734.17725	1068.15930	1155.19971	788.51227	968.34521	1165.60864	887.56018	869.10663	1141.95349	833.80273	855.39807	1127.81421	894.84167	797.83594	1599.00012	783.84698	1390.24487	1696.97827	731.39465	1186.87463	1697.21960	732.52850	1063.20789	1727.40808	756.26251	945.83691	1708.94287	831.60687	825.59332	1748.19373	788.59180	829.12549	1745.32263	820.80444	748.97113	1331.07214	827.49854	933.64825	1547.05945	844.69305	941.14044	1397.72278	645.16101	941.80933	1542.65259	657.58649	949.31018	1266.69971	820.55273	600.70984	1271.58618	819.75415	468.52914	1269.29126	672.56421	357.24194	1325.93982	508.94641	216.76323	1387.18188	468.84372	225.94504	1308.54749	556.89294	77.63708	1603.59143	833.81775	608.60522	1572.73340	865.86841	453.95297	1580.34631	823.42566	281.44077	1529.01733	806.33270	78.26582	1480.49451	754.94415	39.79563	1521.54028	947.19080	41.17665	1473.33020	864.27625	1709.66846	-3101.79980	1973.18005	1023.55908	-3140.61206	2012.52771	1022.02887			 
